<mxfile host="65bd71144e">
    <diagram id="jxrNNbo6cmxt4PajOQM8" name="Page-1">
        <mxGraphModel dx="1356" dy="940" grid="1" gridSize="10" guides="1" tooltips="1" connect="1" arrows="1" fold="1" page="1" pageScale="1" pageWidth="850" pageHeight="1100" math="0" shadow="0">
            <root>
                <mxCell id="0"/>
                <mxCell id="1" parent="0"/>
                <mxCell id="ulpGdKY935CBZI4DlXVS-1" value="" style="rounded=0;whiteSpace=wrap;html=1;labelBackgroundColor=none;" parent="1" vertex="1">
                    <mxGeometry x="190" y="140" width="450" height="779" as="geometry"/>
                </mxCell>
                <mxCell id="ulpGdKY935CBZI4DlXVS-2" style="rounded=0;orthogonalLoop=1;jettySize=auto;html=1;fontColor=default;labelBackgroundColor=none;" parent="1" source="ulpGdKY935CBZI4DlXVS-9" target="ulpGdKY935CBZI4DlXVS-14" edge="1">
                    <mxGeometry relative="1" as="geometry"/>
                </mxCell>
                <mxCell id="ulpGdKY935CBZI4DlXVS-3" style="edgeStyle=none;rounded=0;orthogonalLoop=1;jettySize=auto;html=1;fontColor=default;labelBackgroundColor=none;" parent="1" source="ulpGdKY935CBZI4DlXVS-9" target="ulpGdKY935CBZI4DlXVS-29" edge="1">
                    <mxGeometry relative="1" as="geometry"/>
                </mxCell>
                <mxCell id="ulpGdKY935CBZI4DlXVS-4" style="edgeStyle=none;rounded=0;orthogonalLoop=1;jettySize=auto;html=1;fontColor=default;labelBackgroundColor=none;" parent="1" source="ulpGdKY935CBZI4DlXVS-9" target="ulpGdKY935CBZI4DlXVS-65" edge="1">
                    <mxGeometry relative="1" as="geometry"/>
                </mxCell>
                <mxCell id="ulpGdKY935CBZI4DlXVS-5" style="edgeStyle=none;rounded=0;orthogonalLoop=1;jettySize=auto;html=1;fontColor=default;labelBackgroundColor=none;" parent="1" source="ulpGdKY935CBZI4DlXVS-9" target="ulpGdKY935CBZI4DlXVS-64" edge="1">
                    <mxGeometry relative="1" as="geometry"/>
                </mxCell>
                <mxCell id="ulpGdKY935CBZI4DlXVS-6" style="edgeStyle=none;rounded=0;orthogonalLoop=1;jettySize=auto;html=1;fontColor=default;labelBackgroundColor=none;" parent="1" source="ulpGdKY935CBZI4DlXVS-9" target="ulpGdKY935CBZI4DlXVS-37" edge="1">
                    <mxGeometry relative="1" as="geometry"/>
                </mxCell>
                <mxCell id="ulpGdKY935CBZI4DlXVS-7" style="edgeStyle=none;rounded=0;orthogonalLoop=1;jettySize=auto;html=1;fontColor=default;labelBackgroundColor=none;" parent="1" source="ulpGdKY935CBZI4DlXVS-9" target="ulpGdKY935CBZI4DlXVS-70" edge="1">
                    <mxGeometry relative="1" as="geometry"/>
                </mxCell>
                <mxCell id="ulpGdKY935CBZI4DlXVS-8" style="edgeStyle=none;rounded=0;orthogonalLoop=1;jettySize=auto;html=1;fontColor=default;labelBackgroundColor=none;" parent="1" source="ulpGdKY935CBZI4DlXVS-9" target="ulpGdKY935CBZI4DlXVS-73" edge="1">
                    <mxGeometry relative="1" as="geometry"/>
                </mxCell>
                <mxCell id="ulpGdKY935CBZI4DlXVS-9" value="&lt;div&gt;Business&lt;/div&gt;&lt;div&gt;Model&lt;br&gt;&lt;/div&gt;" style="rounded=0;whiteSpace=wrap;html=1;labelBackgroundColor=none;" parent="1" vertex="1">
                    <mxGeometry x="360" y="409" width="120" height="60" as="geometry"/>
                </mxCell>
                <mxCell id="ulpGdKY935CBZI4DlXVS-10" style="rounded=0;orthogonalLoop=1;jettySize=auto;html=1;fontColor=default;labelBackgroundColor=none;" parent="1" source="ulpGdKY935CBZI4DlXVS-14" target="ulpGdKY935CBZI4DlXVS-17" edge="1">
                    <mxGeometry relative="1" as="geometry"/>
                </mxCell>
                <mxCell id="ulpGdKY935CBZI4DlXVS-11" style="rounded=0;orthogonalLoop=1;jettySize=auto;html=1;fontColor=default;labelBackgroundColor=none;" parent="1" source="ulpGdKY935CBZI4DlXVS-14" target="ulpGdKY935CBZI4DlXVS-22" edge="1">
                    <mxGeometry relative="1" as="geometry"/>
                </mxCell>
                <mxCell id="ulpGdKY935CBZI4DlXVS-12" style="edgeStyle=none;rounded=0;orthogonalLoop=1;jettySize=auto;html=1;fontColor=default;labelBackgroundColor=none;" parent="1" source="ulpGdKY935CBZI4DlXVS-14" target="ulpGdKY935CBZI4DlXVS-36" edge="1">
                    <mxGeometry relative="1" as="geometry"/>
                </mxCell>
                <mxCell id="ulpGdKY935CBZI4DlXVS-13" style="edgeStyle=none;rounded=0;orthogonalLoop=1;jettySize=auto;html=1;fontColor=default;labelBackgroundColor=none;" parent="1" source="ulpGdKY935CBZI4DlXVS-14" target="ulpGdKY935CBZI4DlXVS-30" edge="1">
                    <mxGeometry relative="1" as="geometry"/>
                </mxCell>
                <mxCell id="ulpGdKY935CBZI4DlXVS-14" value="&lt;div&gt;Service&lt;/div&gt;&lt;div&gt;Model&lt;br&gt;&lt;/div&gt;" style="rounded=0;whiteSpace=wrap;html=1;labelBackgroundColor=none;" parent="1" vertex="1">
                    <mxGeometry x="360" y="529" width="120" height="60" as="geometry"/>
                </mxCell>
                <mxCell id="ulpGdKY935CBZI4DlXVS-15" style="rounded=0;orthogonalLoop=1;jettySize=auto;html=1;fontColor=default;labelBackgroundColor=none;" parent="1" source="ulpGdKY935CBZI4DlXVS-17" target="ulpGdKY935CBZI4DlXVS-25" edge="1">
                    <mxGeometry relative="1" as="geometry"/>
                </mxCell>
                <mxCell id="ulpGdKY935CBZI4DlXVS-16" style="edgeStyle=none;rounded=0;orthogonalLoop=1;jettySize=auto;html=1;fontColor=default;labelBackgroundColor=none;" parent="1" source="ulpGdKY935CBZI4DlXVS-17" target="ulpGdKY935CBZI4DlXVS-31" edge="1">
                    <mxGeometry relative="1" as="geometry"/>
                </mxCell>
                <mxCell id="ulpGdKY935CBZI4DlXVS-17" value="&lt;div&gt;Application&lt;/div&gt;&lt;div&gt;Model&lt;br&gt;&lt;/div&gt;" style="rounded=0;whiteSpace=wrap;html=1;labelBackgroundColor=none;" parent="1" vertex="1">
                    <mxGeometry x="280" y="649" width="120" height="60" as="geometry"/>
                </mxCell>
                <mxCell id="ulpGdKY935CBZI4DlXVS-18" style="rounded=0;orthogonalLoop=1;jettySize=auto;html=1;fontColor=default;labelBackgroundColor=none;" parent="1" source="ulpGdKY935CBZI4DlXVS-22" target="ulpGdKY935CBZI4DlXVS-28" edge="1">
                    <mxGeometry relative="1" as="geometry"/>
                </mxCell>
                <mxCell id="ulpGdKY935CBZI4DlXVS-19" style="rounded=0;orthogonalLoop=1;jettySize=auto;html=1;fontColor=default;labelBackgroundColor=none;" parent="1" source="ulpGdKY935CBZI4DlXVS-22" target="ulpGdKY935CBZI4DlXVS-17" edge="1">
                    <mxGeometry relative="1" as="geometry"/>
                </mxCell>
                <mxCell id="ulpGdKY935CBZI4DlXVS-20" style="edgeStyle=none;rounded=0;orthogonalLoop=1;jettySize=auto;html=1;fontColor=default;labelBackgroundColor=none;" parent="1" source="ulpGdKY935CBZI4DlXVS-22" target="ulpGdKY935CBZI4DlXVS-34" edge="1">
                    <mxGeometry relative="1" as="geometry"/>
                </mxCell>
                <mxCell id="ulpGdKY935CBZI4DlXVS-21" style="edgeStyle=none;rounded=0;orthogonalLoop=1;jettySize=auto;html=1;fontColor=default;labelBackgroundColor=none;" parent="1" source="ulpGdKY935CBZI4DlXVS-22" target="ulpGdKY935CBZI4DlXVS-35" edge="1">
                    <mxGeometry relative="1" as="geometry"/>
                </mxCell>
                <mxCell id="ulpGdKY935CBZI4DlXVS-22" value="&lt;div&gt;Deployment&lt;/div&gt;&lt;div&gt;Model&lt;br&gt;&lt;/div&gt;" style="rounded=0;whiteSpace=wrap;html=1;labelBackgroundColor=none;" parent="1" vertex="1">
                    <mxGeometry x="440" y="649" width="120" height="60" as="geometry"/>
                </mxCell>
                <mxCell id="ulpGdKY935CBZI4DlXVS-23" style="edgeStyle=none;rounded=0;orthogonalLoop=1;jettySize=auto;html=1;fontColor=default;labelBackgroundColor=none;" parent="1" source="ulpGdKY935CBZI4DlXVS-25" target="ulpGdKY935CBZI4DlXVS-66" edge="1">
                    <mxGeometry relative="1" as="geometry"/>
                </mxCell>
                <mxCell id="ulpGdKY935CBZI4DlXVS-24" style="edgeStyle=none;rounded=0;orthogonalLoop=1;jettySize=auto;html=1;fontColor=default;labelBackgroundColor=none;" parent="1" source="ulpGdKY935CBZI4DlXVS-25" target="ulpGdKY935CBZI4DlXVS-32" edge="1">
                    <mxGeometry relative="1" as="geometry"/>
                </mxCell>
                <mxCell id="ulpGdKY935CBZI4DlXVS-25" value="&lt;div&gt;Data&lt;/div&gt;&lt;div&gt;Model&lt;br&gt;&lt;/div&gt;" style="rounded=0;whiteSpace=wrap;html=1;labelBackgroundColor=none;" parent="1" vertex="1">
                    <mxGeometry x="280" y="769" width="120" height="60" as="geometry"/>
                </mxCell>
                <mxCell id="ulpGdKY935CBZI4DlXVS-26" style="edgeStyle=none;rounded=0;orthogonalLoop=1;jettySize=auto;html=1;fontColor=default;labelBackgroundColor=none;" parent="1" source="ulpGdKY935CBZI4DlXVS-28" target="ulpGdKY935CBZI4DlXVS-33" edge="1">
                    <mxGeometry relative="1" as="geometry"/>
                </mxCell>
                <mxCell id="ulpGdKY935CBZI4DlXVS-27" style="edgeStyle=none;rounded=0;orthogonalLoop=1;jettySize=auto;html=1;fontColor=default;labelBackgroundColor=none;" parent="1" source="ulpGdKY935CBZI4DlXVS-28" target="ulpGdKY935CBZI4DlXVS-75" edge="1">
                    <mxGeometry relative="1" as="geometry"/>
                </mxCell>
                <mxCell id="ulpGdKY935CBZI4DlXVS-28" value="&lt;div&gt;Infrastructure&lt;/div&gt;&lt;div&gt;Model&lt;br&gt;&lt;/div&gt;" style="rounded=0;whiteSpace=wrap;html=1;labelBackgroundColor=none;" parent="1" vertex="1">
                    <mxGeometry x="440" y="769" width="120" height="60" as="geometry"/>
                </mxCell>
                <mxCell id="ulpGdKY935CBZI4DlXVS-29" value="&lt;div&gt;Business Scenarios&lt;/div&gt;" style="shape=document;whiteSpace=wrap;html=1;boundedLbl=1;labelBackgroundColor=none;" parent="1" vertex="1">
                    <mxGeometry x="140" y="439" width="80" height="60" as="geometry"/>
                </mxCell>
                <mxCell id="ulpGdKY935CBZI4DlXVS-30" value="Service Catalog" style="shape=document;whiteSpace=wrap;html=1;boundedLbl=1;labelBackgroundColor=none;" parent="1" vertex="1">
                    <mxGeometry x="140" y="599" width="80" height="60" as="geometry"/>
                </mxCell>
                <mxCell id="ulpGdKY935CBZI4DlXVS-31" value="&lt;div&gt;Application Catalog&lt;br&gt;&lt;/div&gt;" style="shape=document;whiteSpace=wrap;html=1;boundedLbl=1;labelBackgroundColor=none;" parent="1" vertex="1">
                    <mxGeometry x="140" y="679" width="80" height="60" as="geometry"/>
                </mxCell>
                <mxCell id="ulpGdKY935CBZI4DlXVS-32" value="&lt;div&gt;Data&lt;/div&gt;&lt;div&gt; Catalog&lt;/div&gt;" style="shape=document;whiteSpace=wrap;html=1;boundedLbl=1;labelBackgroundColor=none;" parent="1" vertex="1">
                    <mxGeometry x="260" y="899" width="80" height="60" as="geometry"/>
                </mxCell>
                <mxCell id="ulpGdKY935CBZI4DlXVS-33" value="Infrastructure Catalog" style="shape=document;whiteSpace=wrap;html=1;boundedLbl=1;labelBackgroundColor=none;" parent="1" vertex="1">
                    <mxGeometry x="590" y="899" width="80" height="60" as="geometry"/>
                </mxCell>
                <mxCell id="ulpGdKY935CBZI4DlXVS-34" value="Deployment Architecture" style="shape=document;whiteSpace=wrap;html=1;boundedLbl=1;labelBackgroundColor=none;" parent="1" vertex="1">
                    <mxGeometry x="620" y="699" width="80" height="60" as="geometry"/>
                </mxCell>
                <mxCell id="ulpGdKY935CBZI4DlXVS-35" value="Deployment Performance" style="shape=document;whiteSpace=wrap;html=1;boundedLbl=1;labelBackgroundColor=none;" parent="1" vertex="1">
                    <mxGeometry x="610" y="599" width="80" height="60" as="geometry"/>
                </mxCell>
                <mxCell id="ulpGdKY935CBZI4DlXVS-36" value="Service Performance" style="shape=document;whiteSpace=wrap;html=1;boundedLbl=1;labelBackgroundColor=none;" parent="1" vertex="1">
                    <mxGeometry x="610" y="519" width="80" height="60" as="geometry"/>
                </mxCell>
                <mxCell id="ulpGdKY935CBZI4DlXVS-37" value="Workload Planning" style="shape=document;whiteSpace=wrap;html=1;boundedLbl=1;labelBackgroundColor=none;" parent="1" vertex="1">
                    <mxGeometry x="610" y="359" width="80" height="60" as="geometry"/>
                </mxCell>
                <mxCell id="ulpGdKY935CBZI4DlXVS-38" style="edgeStyle=none;rounded=0;orthogonalLoop=1;jettySize=auto;html=1;fontColor=default;labelBackgroundColor=none;" parent="1" source="ulpGdKY935CBZI4DlXVS-40" target="ulpGdKY935CBZI4DlXVS-37" edge="1">
                    <mxGeometry relative="1" as="geometry"/>
                </mxCell>
                <mxCell id="ulpGdKY935CBZI4DlXVS-39" style="edgeStyle=none;rounded=0;orthogonalLoop=1;jettySize=auto;html=1;fontColor=default;labelBackgroundColor=none;" parent="1" source="ulpGdKY935CBZI4DlXVS-40" target="ulpGdKY935CBZI4DlXVS-70" edge="1">
                    <mxGeometry relative="1" as="geometry"/>
                </mxCell>
                <mxCell id="ulpGdKY935CBZI4DlXVS-40" value="Analysts" style="shape=image;html=1;verticalAlign=top;verticalLabelPosition=bottom;labelBackgroundColor=none;imageAspect=0;aspect=fixed;image=https://cdn0.iconfinder.com/data/icons/elasto-online-store/26/00-ELASTOFONT-STORE-READY_user-128.png;" parent="1" vertex="1">
                    <mxGeometry x="760" y="389" width="40" height="40" as="geometry"/>
                </mxCell>
                <mxCell id="ulpGdKY935CBZI4DlXVS-41" style="edgeStyle=none;rounded=0;orthogonalLoop=1;jettySize=auto;html=1;fontColor=default;labelBackgroundColor=none;" parent="1" source="ulpGdKY935CBZI4DlXVS-43" target="ulpGdKY935CBZI4DlXVS-36" edge="1">
                    <mxGeometry relative="1" as="geometry"/>
                </mxCell>
                <mxCell id="ulpGdKY935CBZI4DlXVS-42" style="edgeStyle=none;rounded=0;orthogonalLoop=1;jettySize=auto;html=1;fontColor=default;labelBackgroundColor=none;" parent="1" source="ulpGdKY935CBZI4DlXVS-43" target="ulpGdKY935CBZI4DlXVS-35" edge="1">
                    <mxGeometry relative="1" as="geometry"/>
                </mxCell>
                <mxCell id="ulpGdKY935CBZI4DlXVS-43" value="Operations" style="shape=image;html=1;verticalAlign=top;verticalLabelPosition=bottom;labelBackgroundColor=none;imageAspect=0;aspect=fixed;image=https://cdn0.iconfinder.com/data/icons/elasto-online-store/26/00-ELASTOFONT-STORE-READY_user-128.png;" parent="1" vertex="1">
                    <mxGeometry x="770" y="569" width="40" height="40" as="geometry"/>
                </mxCell>
                <mxCell id="ulpGdKY935CBZI4DlXVS-44" style="edgeStyle=none;rounded=0;orthogonalLoop=1;jettySize=auto;html=1;fontColor=default;labelBackgroundColor=none;" parent="1" source="ulpGdKY935CBZI4DlXVS-45" target="ulpGdKY935CBZI4DlXVS-34" edge="1">
                    <mxGeometry relative="1" as="geometry"/>
                </mxCell>
                <mxCell id="ulpGdKY935CBZI4DlXVS-45" value="Architect" style="shape=image;html=1;verticalAlign=top;verticalLabelPosition=bottom;labelBackgroundColor=none;imageAspect=0;aspect=fixed;image=https://cdn0.iconfinder.com/data/icons/elasto-online-store/26/00-ELASTOFONT-STORE-READY_user-128.png;" parent="1" vertex="1">
                    <mxGeometry x="770" y="699" width="40" height="40" as="geometry"/>
                </mxCell>
                <mxCell id="ulpGdKY935CBZI4DlXVS-46" style="edgeStyle=none;rounded=0;orthogonalLoop=1;jettySize=auto;html=1;fontColor=default;labelBackgroundColor=none;" parent="1" source="ulpGdKY935CBZI4DlXVS-48" target="ulpGdKY935CBZI4DlXVS-66" edge="1">
                    <mxGeometry relative="1" as="geometry"/>
                </mxCell>
                <mxCell id="ulpGdKY935CBZI4DlXVS-47" style="rounded=0;orthogonalLoop=1;jettySize=auto;html=1;fontColor=default;labelBackgroundColor=none;" parent="1" source="ulpGdKY935CBZI4DlXVS-48" target="ulpGdKY935CBZI4DlXVS-32" edge="1">
                    <mxGeometry relative="1" as="geometry"/>
                </mxCell>
                <mxCell id="ulpGdKY935CBZI4DlXVS-48" value="Developers" style="shape=image;html=1;verticalAlign=top;verticalLabelPosition=bottom;labelBackgroundColor=none;imageAspect=0;aspect=fixed;image=https://cdn0.iconfinder.com/data/icons/elasto-online-store/26/00-ELASTOFONT-STORE-READY_user-128.png;" parent="1" vertex="1">
                    <mxGeometry x="90" y="929" width="40" height="40" as="geometry"/>
                </mxCell>
                <mxCell id="ulpGdKY935CBZI4DlXVS-49" style="edgeStyle=none;rounded=0;orthogonalLoop=1;jettySize=auto;html=1;fontColor=default;labelBackgroundColor=none;" parent="1" source="ulpGdKY935CBZI4DlXVS-50" target="ulpGdKY935CBZI4DlXVS-33" edge="1">
                    <mxGeometry relative="1" as="geometry"/>
                </mxCell>
                <mxCell id="ulpGdKY935CBZI4DlXVS-50" value="Architect" style="shape=image;html=1;verticalAlign=top;verticalLabelPosition=bottom;labelBackgroundColor=none;imageAspect=0;aspect=fixed;image=https://cdn0.iconfinder.com/data/icons/elasto-online-store/26/00-ELASTOFONT-STORE-READY_user-128.png;imageBackground=none;" parent="1" vertex="1">
                    <mxGeometry x="770" y="909" width="40" height="40" as="geometry"/>
                </mxCell>
                <mxCell id="ulpGdKY935CBZI4DlXVS-51" style="edgeStyle=none;rounded=0;orthogonalLoop=1;jettySize=auto;html=1;fontColor=default;labelBackgroundColor=none;" parent="1" source="ulpGdKY935CBZI4DlXVS-55" target="ulpGdKY935CBZI4DlXVS-29" edge="1">
                    <mxGeometry relative="1" as="geometry">
                        <mxPoint x="80" y="444" as="sourcePoint"/>
                    </mxGeometry>
                </mxCell>
                <mxCell id="ulpGdKY935CBZI4DlXVS-52" style="edgeStyle=none;rounded=0;orthogonalLoop=1;jettySize=auto;html=1;fontColor=default;labelBackgroundColor=none;entryX=0;entryY=0.5;entryDx=0;entryDy=0;" parent="1" source="ulpGdKY935CBZI4DlXVS-55" target="ulpGdKY935CBZI4DlXVS-64" edge="1">
                    <mxGeometry relative="1" as="geometry">
                        <mxPoint x="80" y="455.66666666666674" as="sourcePoint"/>
                    </mxGeometry>
                </mxCell>
                <mxCell id="ulpGdKY935CBZI4DlXVS-53" style="edgeStyle=none;rounded=0;orthogonalLoop=1;jettySize=auto;html=1;fontColor=default;labelBackgroundColor=none;" parent="1" source="ulpGdKY935CBZI4DlXVS-55" target="ulpGdKY935CBZI4DlXVS-65" edge="1">
                    <mxGeometry relative="1" as="geometry">
                        <mxPoint x="80" y="432.33333333333326" as="sourcePoint"/>
                    </mxGeometry>
                </mxCell>
                <mxCell id="ulpGdKY935CBZI4DlXVS-54" style="edgeStyle=none;rounded=0;orthogonalLoop=1;jettySize=auto;html=1;fontColor=default;labelBackgroundColor=none;" parent="1" source="ulpGdKY935CBZI4DlXVS-55" target="ulpGdKY935CBZI4DlXVS-73" edge="1">
                    <mxGeometry relative="1" as="geometry">
                        <mxPoint x="80" y="420.66666666666674" as="sourcePoint"/>
                    </mxGeometry>
                </mxCell>
                <mxCell id="gjTFiKWRJvgxuR8loIDz-11" style="edgeStyle=none;rounded=0;orthogonalLoop=1;jettySize=auto;html=1;fontColor=default;labelBackgroundColor=none;" parent="1" source="ulpGdKY935CBZI4DlXVS-55" target="ulpGdKY935CBZI4DlXVS-69" edge="1">
                    <mxGeometry relative="1" as="geometry"/>
                </mxCell>
                <mxCell id="7" style="edgeStyle=none;html=1;labelBackgroundColor=none;fontColor=none;entryX=0;entryY=0.5;entryDx=0;entryDy=0;" edge="1" parent="1" source="ulpGdKY935CBZI4DlXVS-55" target="2">
                    <mxGeometry relative="1" as="geometry"/>
                </mxCell>
                <mxCell id="ulpGdKY935CBZI4DlXVS-55" value="Analysts" style="shape=image;html=1;verticalAlign=top;verticalLabelPosition=bottom;labelBackgroundColor=none;imageAspect=0;aspect=fixed;image=https://cdn0.iconfinder.com/data/icons/elasto-online-store/26/00-ELASTOFONT-STORE-READY_user-128.png;imageBackground=none;imageBorder=none;" parent="1" vertex="1">
                    <mxGeometry x="30" y="319" width="40" height="40" as="geometry"/>
                </mxCell>
                <mxCell id="ulpGdKY935CBZI4DlXVS-56" style="rounded=0;orthogonalLoop=1;jettySize=auto;html=1;fontColor=default;labelBackgroundColor=none;" parent="1" source="ulpGdKY935CBZI4DlXVS-57" target="ulpGdKY935CBZI4DlXVS-30" edge="1">
                    <mxGeometry relative="1" as="geometry"/>
                </mxCell>
                <mxCell id="gjTFiKWRJvgxuR8loIDz-10" style="edgeStyle=none;rounded=0;orthogonalLoop=1;jettySize=auto;html=1;fontColor=default;labelBackgroundColor=none;" parent="1" source="ulpGdKY935CBZI4DlXVS-57" target="ulpGdKY935CBZI4DlXVS-31" edge="1">
                    <mxGeometry relative="1" as="geometry"/>
                </mxCell>
                <mxCell id="ulpGdKY935CBZI4DlXVS-57" value="Architect" style="shape=image;html=1;verticalAlign=top;verticalLabelPosition=bottom;labelBackgroundColor=none;imageAspect=0;aspect=fixed;image=https://cdn0.iconfinder.com/data/icons/elasto-online-store/26/00-ELASTOFONT-STORE-READY_user-128.png;imageBackground=none;" parent="1" vertex="1">
                    <mxGeometry x="50" y="639" width="40" height="40" as="geometry"/>
                </mxCell>
                <mxCell id="ulpGdKY935CBZI4DlXVS-60" style="edgeStyle=none;rounded=0;orthogonalLoop=1;jettySize=auto;html=1;fontColor=default;labelBackgroundColor=none;" parent="1" source="ulpGdKY935CBZI4DlXVS-63" target="ulpGdKY935CBZI4DlXVS-9" edge="1">
                    <mxGeometry relative="1" as="geometry"/>
                </mxCell>
                <mxCell id="ulpGdKY935CBZI4DlXVS-61" style="edgeStyle=none;rounded=0;orthogonalLoop=1;jettySize=auto;html=1;fontColor=default;labelBackgroundColor=none;" parent="1" source="ulpGdKY935CBZI4DlXVS-9" target="ulpGdKY935CBZI4DlXVS-69" edge="1">
                    <mxGeometry relative="1" as="geometry"/>
                </mxCell>
                <mxCell id="ulpGdKY935CBZI4DlXVS-62" style="edgeStyle=none;rounded=0;orthogonalLoop=1;jettySize=auto;html=1;fontColor=default;labelBackgroundColor=none;" parent="1" source="ulpGdKY935CBZI4DlXVS-63" target="ulpGdKY935CBZI4DlXVS-74" edge="1">
                    <mxGeometry relative="1" as="geometry"/>
                </mxCell>
                <mxCell id="gjTFiKWRJvgxuR8loIDz-3" style="rounded=0;orthogonalLoop=1;jettySize=auto;html=1;fontColor=default;labelBackgroundColor=none;" parent="1" source="ulpGdKY935CBZI4DlXVS-9" target="gjTFiKWRJvgxuR8loIDz-1" edge="1">
                    <mxGeometry relative="1" as="geometry"/>
                </mxCell>
                <mxCell id="gjTFiKWRJvgxuR8loIDz-7" style="edgeStyle=none;rounded=0;orthogonalLoop=1;jettySize=auto;html=1;fontColor=default;labelBackgroundColor=none;" parent="1" source="ulpGdKY935CBZI4DlXVS-9" target="gjTFiKWRJvgxuR8loIDz-6" edge="1">
                    <mxGeometry relative="1" as="geometry"/>
                </mxCell>
                <mxCell id="ulpGdKY935CBZI4DlXVS-63" value="&lt;div&gt;Social&lt;/div&gt;&lt;div&gt;Model&lt;br&gt;&lt;/div&gt;" style="rounded=0;whiteSpace=wrap;html=1;labelBackgroundColor=none;" parent="1" vertex="1">
                    <mxGeometry x="360" y="289" width="120" height="60" as="geometry"/>
                </mxCell>
                <mxCell id="ulpGdKY935CBZI4DlXVS-64" value="&lt;div&gt;Business Process&lt;/div&gt;" style="shape=document;whiteSpace=wrap;html=1;boundedLbl=1;labelBackgroundColor=none;" parent="1" vertex="1">
                    <mxGeometry x="140" y="509" width="80" height="60" as="geometry"/>
                </mxCell>
                <mxCell id="ulpGdKY935CBZI4DlXVS-65" value="&lt;div&gt;Business Experiences&lt;/div&gt;" style="shape=document;whiteSpace=wrap;html=1;boundedLbl=1;labelBackgroundColor=none;" parent="1" vertex="1">
                    <mxGeometry x="140" y="369" width="80" height="60" as="geometry"/>
                </mxCell>
                <mxCell id="ulpGdKY935CBZI4DlXVS-66" value="API Catalog" style="shape=document;whiteSpace=wrap;html=1;boundedLbl=1;labelBackgroundColor=none;" parent="1" vertex="1">
                    <mxGeometry x="150" y="779" width="80" height="60" as="geometry"/>
                </mxCell>
                <mxCell id="ulpGdKY935CBZI4DlXVS-67" value="Information Domain" style="rounded=0;whiteSpace=wrap;html=1;labelBackgroundColor=none;" parent="1" vertex="1">
                    <mxGeometry x="720" y="999" width="120" height="30" as="geometry"/>
                </mxCell>
                <mxCell id="ulpGdKY935CBZI4DlXVS-68" value="Artifact Experience" style="shape=document;whiteSpace=wrap;html=1;boundedLbl=1;labelBackgroundColor=none;" parent="1" vertex="1">
                    <mxGeometry x="720" y="1039" width="120" height="30" as="geometry"/>
                </mxCell>
                <mxCell id="ulpGdKY935CBZI4DlXVS-69" value="Accountability Framework" style="shape=document;whiteSpace=wrap;html=1;boundedLbl=1;labelBackgroundColor=none;" parent="1" vertex="1">
                    <mxGeometry x="140" y="229" width="80" height="60" as="geometry"/>
                </mxCell>
                <mxCell id="ulpGdKY935CBZI4DlXVS-70" value="Workload Performance" style="shape=document;whiteSpace=wrap;html=1;boundedLbl=1;labelBackgroundColor=none;" parent="1" vertex="1">
                    <mxGeometry x="610" y="439" width="80" height="60" as="geometry"/>
                </mxCell>
                <mxCell id="ulpGdKY935CBZI4DlXVS-73" value="Product Catalog" style="shape=document;whiteSpace=wrap;html=1;boundedLbl=1;labelBackgroundColor=none;" parent="1" vertex="1">
                    <mxGeometry x="140" y="299" width="80" height="60" as="geometry"/>
                </mxCell>
                <mxCell id="ulpGdKY935CBZI4DlXVS-74" value="Leadership Framework" style="shape=document;whiteSpace=wrap;html=1;boundedLbl=1;labelBackgroundColor=none;" parent="1" vertex="1">
                    <mxGeometry x="380" y="110" width="80" height="60" as="geometry"/>
                </mxCell>
                <mxCell id="ulpGdKY935CBZI4DlXVS-75" value="Infrastructure Performance" style="shape=document;whiteSpace=wrap;html=1;boundedLbl=1;labelBackgroundColor=none;" parent="1" vertex="1">
                    <mxGeometry x="610" y="799" width="80" height="60" as="geometry"/>
                </mxCell>
                <mxCell id="ulpGdKY935CBZI4DlXVS-90" style="rounded=0;orthogonalLoop=1;jettySize=auto;html=1;fontColor=default;labelBackgroundColor=none;" parent="1" source="ulpGdKY935CBZI4DlXVS-89" target="ulpGdKY935CBZI4DlXVS-75" edge="1">
                    <mxGeometry relative="1" as="geometry">
                        <mxPoint x="790" y="819" as="targetPoint"/>
                    </mxGeometry>
                </mxCell>
                <mxCell id="ulpGdKY935CBZI4DlXVS-89" value="Operations" style="shape=image;html=1;verticalAlign=top;verticalLabelPosition=bottom;labelBackgroundColor=none;imageAspect=0;aspect=fixed;image=https://cdn0.iconfinder.com/data/icons/elasto-online-store/26/00-ELASTOFONT-STORE-READY_user-128.png;imageBackground=none;" parent="1" vertex="1">
                    <mxGeometry x="770" y="809" width="40" height="40" as="geometry"/>
                </mxCell>
                <mxCell id="gjTFiKWRJvgxuR8loIDz-1" value="Mission and Vision" style="shape=document;whiteSpace=wrap;html=1;boundedLbl=1;labelBackgroundColor=none;" parent="1" vertex="1">
                    <mxGeometry x="610" y="219" width="80" height="60" as="geometry"/>
                </mxCell>
                <mxCell id="gjTFiKWRJvgxuR8loIDz-9" style="edgeStyle=none;rounded=0;orthogonalLoop=1;jettySize=auto;html=1;fontColor=default;labelBackgroundColor=none;" parent="1" source="gjTFiKWRJvgxuR8loIDz-2" target="ulpGdKY935CBZI4DlXVS-74" edge="1">
                    <mxGeometry relative="1" as="geometry"/>
                </mxCell>
                <mxCell id="gjTFiKWRJvgxuR8loIDz-2" value="Leaders" style="shape=image;html=1;verticalAlign=top;verticalLabelPosition=bottom;labelBackgroundColor=none;imageAspect=0;aspect=fixed;image=https://cdn0.iconfinder.com/data/icons/elasto-online-store/26/00-ELASTOFONT-STORE-READY_user-128.png;" parent="1" vertex="1">
                    <mxGeometry x="400" y="20" width="40" height="40" as="geometry"/>
                </mxCell>
                <mxCell id="gjTFiKWRJvgxuR8loIDz-5" style="edgeStyle=none;rounded=0;orthogonalLoop=1;jettySize=auto;html=1;fontColor=default;labelBackgroundColor=none;" parent="1" source="gjTFiKWRJvgxuR8loIDz-4" target="gjTFiKWRJvgxuR8loIDz-1" edge="1">
                    <mxGeometry relative="1" as="geometry"/>
                </mxCell>
                <mxCell id="gjTFiKWRJvgxuR8loIDz-8" style="edgeStyle=none;rounded=0;orthogonalLoop=1;jettySize=auto;html=1;fontColor=default;labelBackgroundColor=none;" parent="1" source="gjTFiKWRJvgxuR8loIDz-4" target="gjTFiKWRJvgxuR8loIDz-6" edge="1">
                    <mxGeometry relative="1" as="geometry"/>
                </mxCell>
                <mxCell id="6" style="edgeStyle=none;html=1;labelBackgroundColor=none;fontColor=none;entryX=1;entryY=0.5;entryDx=0;entryDy=0;" edge="1" parent="1" source="gjTFiKWRJvgxuR8loIDz-4" target="4">
                    <mxGeometry relative="1" as="geometry"/>
                </mxCell>
                <mxCell id="gjTFiKWRJvgxuR8loIDz-4" value="Directors" style="shape=image;html=1;verticalAlign=top;verticalLabelPosition=bottom;labelBackgroundColor=none;imageAspect=0;aspect=fixed;image=https://cdn0.iconfinder.com/data/icons/elasto-online-store/26/00-ELASTOFONT-STORE-READY_user-128.png;" parent="1" vertex="1">
                    <mxGeometry x="770" y="269" width="40" height="40" as="geometry"/>
                </mxCell>
                <mxCell id="gjTFiKWRJvgxuR8loIDz-6" value="Strategy and Goals" style="shape=document;whiteSpace=wrap;html=1;boundedLbl=1;labelBackgroundColor=none;" parent="1" vertex="1">
                    <mxGeometry x="610" y="289" width="80" height="60" as="geometry"/>
                </mxCell>
                <mxCell id="3" style="edgeStyle=none;html=1;labelBackgroundColor=none;fontColor=none;" edge="1" parent="1" source="2" target="ulpGdKY935CBZI4DlXVS-63">
                    <mxGeometry relative="1" as="geometry"/>
                </mxCell>
                <mxCell id="2" value="CRM" style="shape=document;whiteSpace=wrap;html=1;boundedLbl=1;labelBackgroundColor=none;" vertex="1" parent="1">
                    <mxGeometry x="140" y="150" width="80" height="60" as="geometry"/>
                </mxCell>
                <mxCell id="5" style="edgeStyle=none;html=1;labelBackgroundColor=none;fontColor=none;" edge="1" parent="1" source="4" target="ulpGdKY935CBZI4DlXVS-63">
                    <mxGeometry relative="1" as="geometry"/>
                </mxCell>
                <mxCell id="4" value="ERM" style="shape=document;whiteSpace=wrap;html=1;boundedLbl=1;labelBackgroundColor=none;" vertex="1" parent="1">
                    <mxGeometry x="610" y="150" width="80" height="60" as="geometry"/>
                </mxCell>
            </root>
        </mxGraphModel>
    </diagram>
</mxfile>
